<svg width="24" height="24" viewBox="0 0 24 24" fill="none" xmlns="http://www.w3.org/2000/svg">
<path fill-rule="evenodd" clip-rule="evenodd" d="M12 21C7.02944 21 3 16.9706 3 12C3 7.02944 7.02944 3 12 3C16.9706 3 21 7.02944 21 12C21 16.9706 16.9706 21 12 21ZM12 19C15.866 19 19 15.866 19 12C19 8.13401 15.866 5 12 5C8.13401 5 5 8.13401 5 12C5 14.7924 6.63505 17.2029 9 18.3264V17C8.44772 17 8 16.5523 8 16C8 15.4477 8.44772 15 9 15V14C8.44772 14 8 13.5523 8 13C8 12.4477 8.44772 12 9 12V8C9 7.44772 9.44772 7 10 7H13C14.7349 7 16 8.36455 16 10.5C16 12.6249 14.7095 14 13 14H11V15H13C13.5523 15 14 15.4477 14 16C14 16.5523 13.5523 17 13 17H11V18.9291C11.3266 18.9758 11.6605 19 12 19ZM14 10.5C14 11.5477 13.5756 12 13 12H11V9H13C13.5951 9 14 9.43673 14 10.5Z" fill="#333333"/>
</svg>
