<svg width="80" height="80" viewBox="0 0 80 80" fill="none" xmlns="http://www.w3.org/2000/svg">
<path d="M34.2715 69.9092H45.2837L45.5284 62.8124C47.894 62.2414 50.0965 61.3442 52.0542 60.1206L57.1932 65.0149L65.0241 57.2656L60.2114 52.1265C61.4349 50.1688 62.3322 47.9664 62.9032 45.6008L70 45.4377V34.4255L62.9032 34.1807C62.3322 31.8152 61.4349 29.6943 60.2114 27.655L65.1057 22.516L57.3563 14.7667L52.1358 19.5794C50.178 18.3558 47.9756 17.4585 45.61 16.8875L45.4469 9.79077H34.4347L34.19 16.8875C31.9059 17.4585 29.7035 18.3558 27.6642 19.5794L22.5252 14.6851L14.7759 22.4344L19.5886 27.5734C18.365 29.5311 17.4677 31.7336 16.8967 34.0992L9.79999 34.2623V45.2745L16.8967 45.5192C17.4677 47.8848 18.365 50.0057 19.5886 52.045L14.6943 57.184L22.4436 65.0149L27.5826 60.2021C29.5404 61.4257 31.7428 62.323 34.1084 62.894L34.2715 69.9092ZM29.8667 39.8092C29.8667 34.2623 34.3531 29.8574 39.8184 29.8574C45.3653 29.8574 49.7702 34.3439 49.7702 39.8092C49.7702 45.3561 45.2837 49.761 39.8184 49.761C34.3531 49.8425 29.8667 45.3561 29.8667 39.8092Z" fill="#E21235"/>
</svg>
