<svg width="42" height="131" viewBox="0 0 42 131" fill="none" xmlns="http://www.w3.org/2000/svg">
<rect x="0.5" y="0.5" width="41" height="130" rx="20.5" fill="#333333" stroke="#F1F1F5"/>
<path d="M25.9192 80.1795L32.2588 80.1299L32.2721 81.8232L25.9324 81.8728L25.9192 80.1795ZM25.9032 78.1405L27.2098 78.1303L27.2547 83.8723L25.9481 83.8825L25.9032 78.1405ZM29.1344 77.7226L29.0114 77.7236C28.5465 77.7272 28.1183 77.6642 27.7266 77.5344C27.3311 77.4047 26.9878 77.214 26.6967 76.9624C26.4057 76.7108 26.1786 76.4 26.0156 76.0302C25.8486 75.6604 25.7633 75.2353 25.7595 74.7548C25.7557 74.2744 25.8344 73.846 25.9956 73.4697C26.1528 73.0935 26.3749 72.7773 26.662 72.5211C26.949 72.2611 27.2893 72.0631 27.6827 71.9272C28.0723 71.7913 28.4995 71.7216 28.9644 71.7179L29.0874 71.717C29.5483 71.7134 29.9766 71.7764 30.3721 71.9061C30.7638 72.0359 31.1071 72.2285 31.4021 72.484C31.6931 72.7357 31.9202 73.0464 32.0832 73.4162C32.2463 73.7861 32.3297 74.2112 32.3334 74.6917C32.3372 75.1721 32.2605 75.6005 32.1033 75.9767C31.946 76.349 31.7239 76.6652 31.4368 76.9253C31.1459 77.1815 30.8056 77.3775 30.416 77.5134C30.0225 77.6493 29.5953 77.719 29.1344 77.7226ZM28.9982 76.0362L29.1212 76.0352C29.3868 76.0331 29.6347 76.0077 29.8648 75.9591C30.0949 75.9104 30.2974 75.8346 30.4724 75.7316C30.6434 75.6248 30.7771 75.4871 30.8735 75.3183C30.9698 75.1496 31.017 74.9442 31.0151 74.702C31.0133 74.4676 30.9629 74.2668 30.8639 74.0996C30.7649 73.9324 30.6291 73.7987 30.4565 73.6985C30.2799 73.5983 30.0762 73.5257 29.8454 73.4806C29.6145 73.4316 29.3663 73.4082 29.1007 73.4103L28.9776 73.4112C28.7198 73.4133 28.4778 73.4405 28.2517 73.4931C28.0216 73.5418 27.819 73.6195 27.6441 73.7264C27.4652 73.8293 27.3256 73.9652 27.2254 74.134C27.1252 74.3027 27.076 74.5062 27.0778 74.7445C27.0797 74.9828 27.1321 75.1855 27.2349 75.3527C27.3378 75.5159 27.4795 75.6496 27.66 75.7537C27.8365 75.8538 28.0402 75.9265 28.2711 75.9715C28.498 76.0166 28.7403 76.0382 28.9982 76.0362ZM29.5116 67.5182L29.5271 69.5045L28.4198 69.5249L28.407 67.8843C28.4053 67.6655 28.3824 67.488 28.3384 67.3516C28.2904 67.2153 28.2213 67.1162 28.131 67.0544C28.0367 66.9887 27.9231 66.9564 27.7903 66.9574C27.6732 66.9584 27.5737 66.9806 27.492 67.0242C27.4064 67.064 27.3366 67.1251 27.2825 67.2075C27.2285 67.29 27.1902 67.3938 27.1678 67.519C27.1414 67.6403 27.1288 67.783 27.1301 67.947L27.1375 68.8962L32.1706 68.8568L32.1838 70.5443L25.8441 70.5939L25.8235 67.9572C25.8203 67.5432 25.8545 67.1718 25.9261 66.8431C25.9938 66.5145 26.0991 66.2343 26.2418 66.0027C26.3845 65.7672 26.5667 65.5881 26.7884 65.4652C27.0062 65.3385 27.2654 65.274 27.5662 65.2716C27.7615 65.2701 27.9454 65.3136 28.118 65.4021C28.2906 65.4867 28.4439 65.6144 28.5781 65.7852C28.7122 65.9561 28.8233 66.1681 28.9112 66.4213C28.9952 66.6707 29.0482 66.9593 29.0703 67.2873L29.5116 67.5182ZM32.1599 67.4975L32.1787 69.8998L30.8676 69.3299L30.8533 67.5077C30.8517 67.3007 30.825 67.131 30.7732 66.9986C30.7214 66.8661 30.6464 66.7691 30.5482 66.7073C30.4462 66.6417 30.3248 66.6095 30.1842 66.6106C30.0475 66.6116 29.9286 66.6419 29.8275 66.7013C29.7264 66.7606 29.649 66.857 29.5953 66.9902C29.5378 67.1196 29.5098 67.2956 29.5116 67.5182L29.5239 69.0943L28.4164 69.0913L28.4024 67.2984L28.8445 66.8847C28.8683 66.4392 28.9495 66.0714 29.0878 65.7812C29.2262 65.4911 29.4042 65.2768 29.6219 65.1384C29.8356 64.9961 30.0714 64.9239 30.3292 64.9219C30.6299 64.9195 30.8941 64.9741 31.1215 65.0856C31.3489 65.1971 31.5397 65.3636 31.6938 65.5851C31.8439 65.8026 31.9593 66.0713 32.0399 66.391C32.1167 66.7107 32.1567 67.0795 32.1599 67.4975ZM30.6751 60.4601L27.851 60.4822C27.6479 60.4838 27.4743 60.5183 27.3303 60.5859C27.1824 60.6534 27.068 60.7578 26.987 60.8991C26.9061 61.0365 26.8665 61.2145 26.8682 61.4332C26.8696 61.6207 26.9041 61.7826 26.9716 61.9188C27.0352 62.055 27.1278 62.1597 27.2494 62.233C27.3672 62.3063 27.5062 62.3423 27.6663 62.3411L27.6795 64.0285C27.41 64.0306 27.1537 63.9701 26.9105 63.847C26.6673 63.7239 26.453 63.544 26.2676 63.3071C26.0782 63.0703 25.9295 62.7883 25.8215 62.461C25.7134 62.1298 25.6578 61.7591 25.6546 61.349C25.6507 60.8568 25.7293 60.4187 25.8904 60.0346C26.0515 59.6505 26.2952 59.3478 26.6216 59.1265C26.948 58.9013 27.3572 58.7868 27.8494 58.7829L30.5622 58.7617C30.9099 58.759 31.1948 58.7352 31.4172 58.6905C31.6356 58.6458 31.8265 58.5818 31.9899 58.4985L32.0895 58.4978L32.1028 60.2028C31.9316 60.2862 31.7173 60.3503 31.4598 60.3953C31.1984 60.4364 30.9368 60.458 30.6751 60.4601ZM28.2418 60.2564L29.1968 60.2372L29.2042 61.1806C29.2059 61.4032 29.2328 61.5964 29.2849 61.76C29.3369 61.9237 29.4102 62.0579 29.5048 62.1626C29.5955 62.2674 29.7016 62.3447 29.823 62.3945C29.9445 62.4404 30.0775 62.4628 30.222 62.4617C30.3666 62.4606 30.4971 62.4264 30.6138 62.359C30.7266 62.2917 30.8157 62.1953 30.8811 62.0698C30.9426 61.9443 30.9727 61.7976 30.9714 61.6297C30.9694 61.3758 30.9169 61.1555 30.8139 60.9688C30.7108 60.7821 30.5847 60.6385 30.4355 60.5381C30.2862 60.4338 30.1452 60.3802 30.0123 60.3774L30.7237 59.9265C30.8843 59.9877 31.051 60.0723 31.2237 60.1804C31.3964 60.2845 31.5596 60.418 31.7132 60.5808C31.8629 60.7437 31.9875 60.94 32.087 61.1697C32.1825 61.3995 32.2315 61.6725 32.234 61.9889C32.2372 62.3913 32.1599 62.7571 32.0024 63.0865C31.8408 63.412 31.6183 63.6715 31.3346 63.8652C31.047 64.0549 30.7196 64.1512 30.3525 64.1541C30.0204 64.1567 29.725 64.0965 29.4663 63.9735C29.2075 63.8506 28.9892 63.6687 28.8116 63.4279C28.63 63.1832 28.4928 62.8776 28.4001 62.5111C28.3035 62.1447 28.2533 61.7193 28.2495 61.2349L28.2418 60.2564ZM26.9471 55.8016L34.5055 55.7424L34.5187 57.4299L25.7416 57.4986L25.7294 55.9342L26.9471 55.8016ZM28.7965 51.7733L28.9196 51.7724C29.3805 51.7688 29.8086 51.8201 30.204 51.9264C30.5994 52.0288 30.9443 52.1823 31.2389 52.387C31.5296 52.5918 31.7582 52.8478 31.9246 53.1551C32.0872 53.4586 32.17 53.8095 32.1731 54.2079C32.1761 54.5946 32.1006 54.9312 31.9466 55.2175C31.7926 55.5039 31.5758 55.7458 31.296 55.9433C31.0124 56.137 30.6835 56.2938 30.3095 56.414C29.9354 56.5341 29.5338 56.6271 29.1046 56.6929L28.7823 56.6955C28.3209 56.6366 27.8983 56.55 27.5146 56.4358C27.127 56.3217 26.7918 56.17 26.5091 55.9808C26.2224 55.7877 25.9998 55.5512 25.8414 55.2712C25.6829 54.9872 25.6022 54.6539 25.5992 54.2711C25.596 53.8687 25.6694 53.5146 25.8194 53.2088C25.9693 52.899 26.186 52.6395 26.4696 52.4302C26.7531 52.2171 27.0917 52.0562 27.4854 51.9477C27.879 51.8352 28.3161 51.7771 28.7965 51.7733ZM28.9328 53.4657L28.8098 53.4666C28.5403 53.4687 28.2924 53.4941 28.0662 53.5428C27.8361 53.5875 27.6355 53.6594 27.4644 53.7584C27.2932 53.8535 27.1614 53.9795 27.0689 54.1365C26.9724 54.2896 26.925 54.4756 26.9268 54.6943C26.9286 54.9248 26.9672 55.1217 27.0427 55.2852C27.1182 55.4448 27.2266 55.5748 27.368 55.6752C27.5095 55.7757 27.678 55.8506 27.8737 55.8998C28.0694 55.9491 28.2904 55.9786 28.5365 55.9884L29.351 55.982C29.6399 55.9602 29.8992 55.9035 30.129 55.8118C30.3548 55.7202 30.5334 55.5802 30.6647 55.3916C30.7961 55.2031 30.8606 54.9565 30.8582 54.6518C30.8564 54.4292 30.8061 54.242 30.7073 54.0905C30.6045 53.9389 30.4649 53.817 30.2884 53.7246C30.1119 53.6283 29.9082 53.5616 29.6774 53.5243C29.4467 53.4831 29.1984 53.4636 28.9328 53.4657ZM30.572 47.2886L27.7479 47.3107C27.5448 47.3123 27.3712 47.3468 27.2272 47.4144C27.0793 47.4819 26.9649 47.5864 26.8839 47.7276C26.803 47.865 26.7634 48.043 26.7651 48.2618C26.7665 48.4493 26.801 48.6111 26.8685 48.7473C26.9321 48.8835 27.0247 48.9883 27.1463 49.0615C27.2641 49.1348 27.4031 49.1709 27.5632 49.1696L27.5764 50.8571C27.3069 50.8592 27.0506 50.7987 26.8074 50.6756C26.5642 50.5525 26.3499 50.3725 26.1645 50.1357C25.9751 49.8989 25.8264 49.6168 25.7184 49.2895C25.6103 48.9583 25.5547 48.5877 25.5515 48.1775C25.5476 47.6853 25.6262 47.2472 25.7873 46.8631C25.9484 46.479 26.1921 46.1763 26.5185 45.955C26.8449 45.7298 27.2541 45.6153 27.7463 45.6114L30.4591 45.5902C30.8068 45.5875 31.0917 45.5638 31.3141 45.5191C31.5325 45.4744 31.7234 45.4104 31.8868 45.3271L31.9864 45.3263L31.9997 47.0313C31.8285 47.1147 31.6142 47.1789 31.3567 47.2238C31.0953 47.265 30.8337 47.2865 30.572 47.2886ZM28.1387 47.085L29.0937 47.0658L29.1011 48.0091C29.1028 48.2318 29.1297 48.4249 29.1818 48.5886C29.2338 48.7522 29.3072 48.8864 29.4017 48.9912C29.4924 49.0959 29.5985 49.1732 29.72 49.223C29.8414 49.269 29.9744 49.2914 30.1189 49.2902C30.2635 49.2891 30.3941 49.2549 30.5107 49.1876C30.6235 49.1203 30.7126 49.0239 30.778 48.8984C30.8395 48.7729 30.8696 48.6261 30.8683 48.4582C30.8663 48.2043 30.8138 47.984 30.7108 47.7973C30.6078 47.6106 30.4816 47.467 30.3324 47.3666C30.1831 47.2623 30.0421 47.2087 29.9093 47.2059L30.6206 46.755C30.7812 46.8162 30.9479 46.9009 31.1206 47.0089C31.2933 47.113 31.4565 47.2465 31.6101 47.4094C31.7598 47.5723 31.8844 47.7686 31.9839 47.9983C32.0794 48.228 32.1284 48.5011 32.1309 48.8174C32.1341 49.2198 32.0569 49.5856 31.8993 49.915C31.7377 50.2405 31.5152 50.5001 31.2315 50.6937C30.9439 50.8834 30.6165 50.9798 30.2494 50.9826C29.9173 50.9852 29.6219 50.925 29.3632 50.8021C29.1044 50.6791 28.8862 50.4972 28.7085 50.2564C28.5269 50.0117 28.3897 49.7061 28.297 49.3397C28.2004 48.9732 28.1502 48.5478 28.1464 48.0635L28.1387 47.085Z" fill="white"/>
<path d="M15.6898 108.486L16.094 108.481C16.7424 108.474 17.3254 108.555 17.843 108.725C18.3606 108.895 18.8028 109.138 19.1697 109.455C19.5326 109.771 19.8123 110.151 20.0087 110.594C20.2051 111.033 20.3063 111.522 20.3124 112.061C20.3185 112.596 20.2283 113.087 20.0419 113.535C19.8555 113.978 19.5845 114.364 19.2288 114.693C18.8692 115.021 18.4326 115.278 17.919 115.463C17.4054 115.645 16.8244 115.739 16.176 115.747L15.7717 115.751C15.1194 115.759 14.5364 115.677 14.0228 115.507C13.5052 115.337 13.063 115.094 12.6961 114.778C12.3292 114.458 12.0475 114.078 11.8512 113.639C11.6548 113.196 11.5535 112.707 11.5475 112.172C11.5414 111.633 11.6316 111.141 11.818 110.698C12.0044 110.25 12.2774 109.864 12.637 109.54C12.9966 109.212 13.4332 108.957 13.9468 108.775C14.4565 108.59 15.0375 108.493 15.6898 108.486ZM16.1141 110.257L15.6981 110.261C15.245 110.267 14.847 110.312 14.5042 110.398C14.1614 110.484 13.8737 110.608 13.6412 110.771C13.4086 110.934 13.2351 111.131 13.1205 111.363C13.002 111.595 12.9444 111.859 12.9478 112.156C12.9511 112.453 13.0147 112.716 13.1383 112.945C13.2581 113.17 13.436 113.361 13.6722 113.519C13.9083 113.672 14.1987 113.788 14.5434 113.866C14.888 113.945 15.2869 113.981 15.74 113.976L16.156 113.971C16.6052 113.966 17.0031 113.921 17.3498 113.835C17.6926 113.749 17.9823 113.625 18.2187 113.462C18.4513 113.299 18.6268 113.102 18.7453 112.87C18.8638 112.638 18.9213 112.374 18.918 112.077C18.9146 111.78 18.8511 111.517 18.7274 111.288C18.6037 111.059 18.4238 110.867 18.1877 110.714C17.9477 110.56 17.6553 110.444 17.3107 110.366C16.9621 110.288 16.5633 110.252 16.1141 110.257ZM20.1413 107.281L13.8019 107.353L13.7828 105.666L18.804 105.609L18.7801 103.488L13.7589 103.545L13.7398 101.851L20.0792 101.78L20.1413 107.281ZM18.7561 100.845L21.9505 100.921L21.9682 102.491L20.0875 102.512L20.0955 103.221L18.7831 103.236L18.7561 100.845ZM20.1431 97.0562C20.1487 97.5483 20.0756 97.9906 19.9237 98.3829C19.768 98.7754 19.551 99.1099 19.2729 99.3864C18.9947 99.6591 18.6709 99.8698 18.3014 100.019C17.9281 100.167 17.5305 100.244 17.1087 100.249L16.8743 100.251C16.3939 100.257 15.9537 100.193 15.5537 100.061C15.1538 99.929 14.8059 99.7376 14.5101 99.4871C14.2142 99.2326 13.9861 98.9226 13.8257 98.5572C13.6614 98.1919 13.5767 97.7787 13.5715 97.3178C13.5664 96.8686 13.6361 96.4694 13.7806 96.1201C13.9251 95.7708 14.1328 95.4774 14.4035 95.2399C14.6743 94.9986 15.0003 94.8152 15.3818 94.6898C15.7593 94.5644 16.1805 94.4991 16.6453 94.4939L17.3483 94.486L17.4052 99.5247L16.2803 99.5374L16.2421 96.1568L16.1132 96.1582C15.8789 96.1609 15.6704 96.2062 15.4878 96.2942C15.3012 96.3783 15.1542 96.505 15.0467 96.6742C14.9392 96.8434 14.887 97.0588 14.8899 97.3205C14.8924 97.5432 14.9434 97.734 15.0429 97.8931C15.1423 98.0521 15.2805 98.1814 15.4574 98.281C15.6343 98.3766 15.8422 98.4485 16.081 98.4966C16.3159 98.5408 16.574 98.5614 16.8552 98.5582L17.0896 98.5556C17.3434 98.5527 17.5774 98.5149 17.7914 98.4422C18.0054 98.3655 18.1898 98.2599 18.3445 98.1254C18.4992 97.9869 18.6185 97.8215 18.7023 97.6291C18.786 97.4328 18.8265 97.2117 18.8237 96.9656C18.8202 96.6609 18.7585 96.3784 18.6383 96.118C18.5142 95.8538 18.33 95.6273 18.0857 95.4386L18.967 94.6083C19.1599 94.739 19.3455 94.9185 19.5239 95.147C19.7022 95.3716 19.8498 95.6434 19.9667 95.9624C20.0797 96.2814 20.1385 96.646 20.1431 97.0562ZM16.1577 89.1963L17.4702 89.1815L17.5065 92.404L16.1941 92.4188L16.1577 89.1963ZM13.6274 91.8852L19.9668 91.8137L19.9858 93.5011L13.6464 93.5726L13.6274 91.8852ZM13.5845 88.0827L19.9239 88.0112L19.943 89.7044L13.6036 89.776L13.5845 88.0827ZM17.5348 85.0438L13.5267 82.9619L13.5077 81.2745L19.8471 81.203L19.8661 82.8904L15.8762 82.9354L19.8901 85.0172L19.9092 86.7046L13.5697 86.7762L13.5507 85.0888L17.5348 85.0438ZM13.4566 76.7455L19.796 76.674L19.8151 78.3673L13.4757 78.4388L13.4566 76.7455ZM13.4336 74.7066L14.7401 74.6919L14.8049 80.4337L13.4983 80.4484L13.4336 74.7066ZM19.8522 71.2648C19.8577 71.757 19.7846 72.1993 19.6328 72.5916C19.477 72.984 19.2601 73.3185 18.9819 73.5951C18.7037 73.8678 18.3799 74.0785 18.0105 74.2272C17.6371 74.376 17.2395 74.4527 16.8177 74.4575L16.5833 74.4601C16.1029 74.4655 15.6627 74.4021 15.2627 74.2699C14.8628 74.1377 14.5149 73.9463 14.2191 73.6957C13.9232 73.4412 13.6951 73.1313 13.5347 72.7659C13.3704 72.4005 13.2857 71.9874 13.2805 71.5265C13.2754 71.0773 13.3451 70.6781 13.4897 70.3287C13.6342 69.9794 13.8418 69.6861 14.1126 69.4486C14.3833 69.2073 14.7094 69.0239 15.0908 68.8985C15.4683 68.7731 15.8895 68.7078 16.3543 68.7026L17.0574 68.6946L17.1142 73.7334L15.9893 73.7461L15.9512 70.3654L15.8223 70.3669C15.5879 70.3695 15.3794 70.4149 15.1968 70.5029C15.0102 70.587 14.8632 70.7137 14.7557 70.8829C14.6483 71.052 14.596 71.2675 14.599 71.5292C14.6015 71.7518 14.6525 71.9427 14.7519 72.1017C14.8514 72.2608 14.9896 72.3901 15.1665 72.4897C15.3433 72.5853 15.5512 72.6572 15.79 72.7053C16.0249 72.7495 16.283 72.77 16.5642 72.7669L16.7986 72.7642C17.0525 72.7614 17.2864 72.7236 17.5005 72.6508C17.7145 72.5742 17.8988 72.4686 18.0536 72.334C18.2083 72.1956 18.3275 72.0301 18.4113 71.8378C18.495 71.6415 18.5355 71.4203 18.5327 71.1742C18.5293 70.8696 18.4675 70.5871 18.3474 70.3267C18.2233 70.0624 18.0391 69.836 17.7947 69.6473L18.6761 68.817C18.8689 68.9477 19.0546 69.1272 19.2329 69.3557C19.4113 69.5803 19.5589 69.852 19.6758 70.1711C19.7887 70.4901 19.8476 70.8547 19.8522 71.2648ZM16.5589 65.0203L16.4358 65.0217C15.971 65.027 15.5426 64.9654 15.1505 64.837C14.7545 64.7086 14.4105 64.5192 14.1186 64.2685C13.8267 64.0179 13.5986 63.708 13.4342 63.3387C13.266 62.9695 13.1792 62.5446 13.1737 62.0642C13.1683 61.5838 13.2455 61.1551 13.4053 60.7783C13.5613 60.4015 13.7823 60.0846 14.0685 59.8274C14.3546 59.5663 14.6942 59.3672 15.0872 59.2299C15.4763 59.0927 15.9033 59.0215 16.3681 59.0163L16.4911 59.0149C16.952 59.0097 17.3805 59.0712 17.7765 59.1996C18.1686 59.328 18.5126 59.5194 18.8084 59.7739C19.1003 60.0246 19.3284 60.3345 19.4928 60.7038C19.6571 61.073 19.742 61.4979 19.7474 61.9783C19.7528 62.4588 19.6776 62.8874 19.5217 63.2642C19.3657 63.637 19.1447 63.954 18.8585 64.2151C18.5684 64.4722 18.2288 64.6695 17.8397 64.8067C17.4467 64.9439 17.0198 65.0151 16.5589 65.0203ZM16.4168 63.3343L16.5398 63.333C16.8054 63.33 17.0532 63.3037 17.2831 63.2542C17.5131 63.2048 17.7153 63.1283 17.89 63.0247C18.0606 62.9173 18.1938 62.7791 18.2896 62.61C18.3854 62.441 18.4319 62.2354 18.4291 61.9932C18.4265 61.7588 18.3754 61.5582 18.2759 61.3914C18.1763 61.2245 18.04 61.0913 17.867 60.9917C17.6901 60.8921 17.4862 60.8202 17.2552 60.7759C17.0241 60.7277 16.7758 60.7051 16.5102 60.7081L16.3872 60.7095C16.1294 60.7124 15.8875 60.7405 15.6615 60.7939C15.4316 60.8433 15.2293 60.9218 15.0548 61.0292C14.8762 61.1328 14.7371 61.2692 14.6375 61.4383C14.5378 61.6074 14.4893 61.8111 14.492 62.0493C14.4947 62.2876 14.5478 62.4901 14.6512 62.6569C14.7546 62.8199 14.8968 62.953 15.0776 63.0565C15.2546 63.156 15.4585 63.228 15.6895 63.2722C15.9166 63.3165 16.159 63.3372 16.4168 63.3343ZM13.1971 53.749L14.5213 53.734L14.5559 56.8041L13.2318 56.8191L13.1971 53.749ZM13.2263 56.3328L19.5657 56.2613L19.5848 57.9486L13.2453 58.0202L13.2263 56.3328ZM13.1832 52.5186L19.5227 52.447L19.5418 54.1403L13.2024 54.2118L13.1832 52.5186ZM17.1337 49.4914L13.1256 47.4095L13.1066 45.7221L19.446 45.6506L19.465 47.338L15.4751 47.383L19.489 49.4648L19.5081 51.1522L13.1686 51.2237L13.1496 49.5363L17.1337 49.4914ZM18.2007 41.7445C18.1984 41.5375 18.1572 41.3543 18.0773 41.1951C17.9935 41.0358 17.8788 40.9121 17.7333 40.8239C17.5838 40.7318 17.4094 40.685 17.2101 40.6833L17.1922 39.0955C17.6376 39.0944 18.0354 39.2091 18.3856 39.4395C18.732 39.67 19.007 39.9814 19.2107 40.3736C19.4104 40.7659 19.5131 41.2062 19.5186 41.6945C19.5241 42.1866 19.4469 42.6172 19.287 42.9862C19.1271 43.3513 18.904 43.6566 18.6176 43.902C18.3274 44.1475 17.9897 44.333 17.6043 44.4584C17.2151 44.5839 16.7978 44.6492 16.3525 44.6542L16.1826 44.6561C15.7334 44.6612 15.3148 44.6053 14.9268 44.4886C14.5348 44.3719 14.1929 44.1941 13.9011 43.9552C13.6055 43.7164 13.3735 43.4162 13.2054 43.0548C13.0372 42.6934 12.9504 42.2686 12.9449 41.7803C12.939 41.2608 13.0335 40.8047 13.2283 40.4118C13.4231 40.0151 13.7047 39.7033 14.0733 39.4764C14.4379 39.2458 14.8721 39.1256 15.3759 39.116L15.3939 40.7038C15.183 40.7101 14.9921 40.7572 14.8212 40.845C14.6503 40.929 14.5149 41.0516 14.4152 41.2129C14.3115 41.3704 14.2609 41.5643 14.2635 41.7948C14.2663 42.0408 14.3213 42.2414 14.4285 42.3965C14.5318 42.5515 14.6738 42.671 14.8545 42.755C15.0312 42.8389 15.233 42.8972 15.46 42.9298C15.683 42.9585 15.9175 42.9715 16.1636 42.9687L16.3335 42.9668C16.5796 42.964 16.8157 42.9457 17.0419 42.9119C17.2681 42.8781 17.4686 42.8173 17.6434 42.7293C17.8182 42.6375 17.9554 42.5129 18.0552 42.3555C18.155 42.1982 18.2035 41.9945 18.2007 41.7445ZM17.8925 34.687L15.0685 34.7188C14.8654 34.7211 14.692 34.7563 14.5482 34.8243C14.4005 34.8924 14.2864 34.9972 14.206 35.1387C14.1255 35.2764 14.0865 35.4546 14.089 35.6733C14.0911 35.8608 14.1261 36.0225 14.1941 36.1585C14.2581 36.2945 14.3511 36.3989 14.473 36.4717C14.591 36.5446 14.7301 36.5802 14.8903 36.5784L14.9093 38.2658C14.6398 38.2688 14.3832 38.2092 14.1396 38.0869C13.8961 37.9647 13.6811 37.7854 13.4949 37.5493C13.3047 37.3131 13.155 37.0316 13.0459 36.7047C12.9367 36.3738 12.8797 36.0034 12.8751 35.5932C12.8696 35.1011 12.9466 34.6627 13.1064 34.278C13.2661 33.8934 13.5088 33.5899 13.8344 33.3674C14.16 33.1411 14.5689 33.0251 15.0611 33.0196L17.7738 32.989C18.1214 32.9851 18.4063 32.9604 18.6285 32.9149C18.8467 32.8694 19.0374 32.8048 19.2005 32.7209L19.3001 32.7198L19.3194 34.4248C19.1484 34.5087 18.9343 34.5736 18.677 34.6195C18.4157 34.6615 18.1542 34.684 17.8925 34.687ZM15.4585 34.4918L16.4134 34.4693L16.4241 35.4126C16.4266 35.6352 16.4542 35.8283 16.5068 35.9917C16.5594 36.1552 16.6332 36.2892 16.7281 36.3936C16.8192 36.498 16.9255 36.5749 17.0472 36.6244C17.1688 36.6699 17.3018 36.6918 17.4464 36.6902C17.5909 36.6885 17.7214 36.6539 17.8378 36.5861C17.9503 36.5185 18.0391 36.4217 18.1041 36.296C18.1652 36.1703 18.1948 36.0235 18.1929 35.8555C18.19 35.6016 18.1367 35.3815 18.0331 35.1952C17.9294 35.0088 17.8028 34.8657 17.6532 34.7658C17.5036 34.6621 17.3623 34.609 17.2295 34.6065L17.9393 34.1532C18.1001 34.2139 18.2671 34.2979 18.4402 34.4054C18.6132 34.5089 18.7769 34.6418 18.931 34.8042C19.0813 34.9665 19.2066 35.1624 19.3068 35.3918C19.4032 35.6212 19.4531 35.894 19.4567 36.2104C19.4612 36.6127 19.3853 36.9789 19.2288 37.3088C19.0685 37.6348 18.8468 37.8952 18.5638 38.0898C18.2769 38.2805 17.9498 38.378 17.5826 38.3821C17.2506 38.3858 16.955 38.3267 16.6958 38.2046C16.4366 38.0825 16.2178 37.9014 16.0393 37.6612C15.8568 37.4171 15.7186 37.112 15.6246 36.7459C15.5267 36.3798 15.4751 35.9545 15.4696 35.4702L15.4585 34.4918ZM15.4603 27.3721L16.7727 27.3573L16.809 30.5798L15.4966 30.5946L15.4603 27.3721ZM12.9299 30.061L19.2693 29.9895L19.2884 31.6769L12.9489 31.7484L12.9299 30.061ZM12.887 26.2585L19.2264 26.187L19.2455 27.8803L12.9061 27.9518L12.887 26.2585ZM16.8373 23.2196L12.8292 21.1378L12.8102 19.4504L19.1496 19.3788L19.1687 21.0662L15.1787 21.1112L19.1927 23.193L19.2117 24.8804L12.8723 24.952L12.8532 23.2646L16.8373 23.2196ZM19.2192 15.159C19.2248 15.6512 19.1516 16.0935 18.9998 16.4858C18.8441 16.8782 18.6271 17.2127 18.349 17.4893C18.0708 17.762 17.747 17.9727 17.3775 18.1214C17.0042 18.2702 16.6066 18.3469 16.1847 18.3517L15.9504 18.3543C15.4699 18.3597 15.0297 18.2963 14.6298 18.1641C14.2298 18.0319 13.8819 17.8405 13.5861 17.5899C13.2903 17.3354 13.0621 17.0255 12.9018 16.6601C12.7375 16.2947 12.6527 15.8816 12.6475 15.4207C12.6425 14.9715 12.7122 14.5722 12.8567 14.2229C13.0012 13.8736 13.2088 13.5803 13.4796 13.3428C13.7503 13.1015 14.0764 12.9181 14.4578 12.7927C14.8354 12.6673 15.2565 12.602 15.7213 12.5968L16.4244 12.5888L16.4813 17.6276L15.3563 17.6403L15.3182 14.2596L15.1893 14.2611C14.9549 14.2637 14.7465 14.309 14.5638 14.3971C14.3773 14.4812 14.2303 14.6079 14.1228 14.7771C14.0153 14.9462 13.9631 15.1617 13.966 15.4234C13.9685 15.646 14.0195 15.8369 14.119 15.9959C14.2184 16.155 14.3566 16.2843 14.5335 16.3838C14.7104 16.4795 14.9182 16.5514 15.1571 16.5995C15.392 16.6437 15.65 16.6642 15.9313 16.6611L16.1656 16.6584C16.4195 16.6556 16.6535 16.6178 16.8675 16.545C17.0815 16.4684 17.2659 16.3628 17.4206 16.2282C17.5753 16.0897 17.6945 15.9243 17.7783 15.732C17.862 15.5357 17.9025 15.3145 17.8997 15.0684C17.8963 14.7638 17.8345 14.4813 17.7144 14.2209C17.5903 13.9566 17.4061 13.7302 17.1618 13.5415L18.0431 12.7112C18.236 12.8419 18.4216 13.0214 18.6 13.2499C18.7783 13.4744 18.9259 13.7462 19.0428 14.0653C19.1558 14.3843 19.2146 14.7489 19.2192 15.159Z" fill="white"/>
</svg>
