<svg width="24" height="24" viewBox="0 0 24 24" fill="none" xmlns="http://www.w3.org/2000/svg">
<g clip-path="url(#clip0)">
<path d="M4.65022 20.4004L18.4502 2.85036C18.7502 2.55036 18.6002 1.95036 18.3002 1.80036C15.9002 0.450356 13.3502 -0.299644 10.5002 0.150356C5.25022 0.750356 0.900217 4.95036 0.150217 10.3504C-0.449783 14.2504 1.05022 18.0004 3.45022 20.5504C3.75022 20.7004 4.35022 20.7004 4.65022 20.4004ZM4.65022 7.50036L4.80022 6.60036C4.95022 5.55036 5.40022 4.65036 6.30022 3.90036C7.05022 3.15036 8.10022 2.85036 9.45022 2.70036C10.8002 2.70036 11.7002 3.00036 12.3002 3.75036C12.9002 4.50036 13.0502 5.25036 12.9002 6.45036L12.7502 7.35036C12.6002 8.40036 12.0002 9.30036 11.2502 10.0504C10.5002 10.8004 9.45022 11.1004 8.10022 11.2504C6.90022 11.2504 5.85022 10.9504 5.25022 10.2004C4.65022 9.45036 4.50022 8.70036 4.65022 7.50036Z" fill="white"/>
<path d="M8.40029 9.15078C8.85029 9.15078 9.30029 9.00078 9.60029 8.70078C9.90029 8.25078 10.2003 7.95078 10.2003 7.50078L10.3503 6.60078C10.3503 6.15078 10.3503 5.70078 10.2003 5.40078C9.90029 4.95078 9.60029 4.80078 9.00029 4.80078C8.55029 4.80078 8.10029 4.95078 7.80029 5.40078C7.50029 5.70078 7.35029 6.00078 7.20029 6.60078L7.05029 7.50078C7.05029 7.95078 7.05029 8.40078 7.35029 8.70078C7.50029 9.00078 7.95029 9.15078 8.40029 9.15078Z" fill="white"/>
<path d="M16.3506 14.7012C15.9006 14.7012 15.4506 14.8512 15.1506 15.3012C14.8506 15.6012 14.7006 16.0512 14.5506 16.5012L14.4006 17.4012C14.4006 17.8512 14.4006 18.3012 14.7006 18.6012C15.0006 18.9012 15.3006 19.0512 15.7506 19.0512C16.3506 19.0512 16.6506 18.9012 16.9506 18.6012C17.2506 18.3012 17.4006 17.8512 17.5506 17.4012L17.7006 16.5012C17.7006 16.0512 17.7006 15.6012 17.4006 15.3012C17.2506 14.8512 16.9506 14.7012 16.3506 14.7012Z" fill="white"/>
<path d="M19.8002 4.05049L6.15019 21.4505C5.85019 21.7505 6.00019 22.3505 6.30019 22.5005C8.70019 23.8505 11.5502 24.3005 14.7002 23.7005C19.3502 22.6505 22.9502 18.9005 23.8502 14.2505C24.6002 10.3505 23.2502 6.60049 21.0002 3.90049C20.5502 3.60049 19.9502 3.60049 19.8002 4.05049ZM20.2502 16.3505L20.1002 17.2505C19.9502 18.3005 19.5002 19.2005 18.6002 19.9505C17.8502 20.7005 16.8002 21.0005 15.4502 21.1505C14.2502 21.1505 13.2002 20.8505 12.6002 20.1005C12.0002 19.5005 11.8502 18.6005 12.0002 17.5505L12.1502 16.5005C12.3002 15.4505 12.7502 14.5505 13.6502 13.8005C14.4002 13.0505 15.4502 12.7505 16.8002 12.6005C18.0002 12.6005 19.0502 12.9005 19.6502 13.6505C20.1002 14.4005 20.4002 15.3005 20.2502 16.3505Z" fill="white"/>
</g>
<defs>
<clipPath id="clip0">
<rect width="24" height="24" fill="white"/>
</clipPath>
</defs>
</svg>
