<svg width="24" height="24" viewBox="0 0 24 24" fill="none" xmlns="http://www.w3.org/2000/svg">
<path d="M12 2C6.4806 2 2 6.4806 2 12C2 17.5194 6.4806 22 12 22C17.5194 22 22 17.5194 22 12C22 6.4806 17.5194 2 12 2ZM12 19.5094C7.85732 19.5094 4.50313 16.1552 4.50313 12.0125C4.50313 7.86984 7.85732 4.51564 12 4.51564C16.1427 4.51564 19.4969 7.86984 19.4969 12.0125C19.4969 16.1552 16.1302 19.5094 12 19.5094Z" fill="#EF3124"/>
<path d="M11.9873 3.35154C11.9873 3.96481 12.4379 4.50298 13.0511 4.59059C16.3427 5.05367 18.9335 7.65693 19.4091 10.9485C19.4967 11.5618 20.0349 12.0124 20.6481 12.0124C21.4116 12.0124 21.9998 11.349 21.8872 10.5981C21.2614 6.20511 17.7946 2.73828 13.4016 2.1125C12.6631 1.99986 11.9873 2.58809 11.9873 3.35154Z" fill="black"/>
</svg>
