<svg width="36" height="36" viewBox="0 0 36 36" fill="none" xmlns="http://www.w3.org/2000/svg">
  <path
    d="M9.73434 27.4587L25.2799 7.68889C25.6178 7.35094 25.4488 6.67505 25.1109 6.50608C22.4073 4.98532 19.5348 4.14045 16.3243 4.64737C10.4102 5.32326 5.51002 10.0545 4.66515 16.1375C3.98926 20.5308 5.67899 24.7552 8.38256 27.6277C8.7205 27.7967 9.3964 27.7967 9.73434 27.4587ZM9.73434 12.9271L9.90332 11.9132C10.0723 10.7304 10.5792 9.71656 11.593 8.8717C12.4379 8.02683 13.6207 7.68889 15.1415 7.51991C16.6622 7.51991 17.6761 7.85786 18.352 8.70273C19.0279 9.54759 19.1968 10.3925 19.0279 11.7442L18.8589 12.7581C18.6899 13.9409 18.014 14.9547 17.1692 15.7996C16.3243 16.6445 15.1415 16.9824 13.6207 17.1514C12.2689 17.1514 11.0861 16.8134 10.4102 15.9686C9.73434 15.1237 9.56537 14.2788 9.73434 12.9271Z"
    fill="#12A2BF" />
  <path
    d="M13.9587 14.7855C14.4657 14.7855 14.9726 14.6165 15.3105 14.2786C15.6485 13.7716 15.9864 13.4337 15.9864 12.9268L16.1554 11.9129C16.1554 11.406 16.1554 10.8991 15.9864 10.5611C15.6485 10.0542 15.3105 9.88525 14.6346 9.88525C14.1277 9.88525 13.6208 10.0542 13.2829 10.5611C12.9449 10.8991 12.7759 11.237 12.607 11.9129L12.438 12.9268C12.438 13.4337 12.438 13.9406 12.7759 14.2786C12.9449 14.6165 13.4518 14.7855 13.9587 14.7855Z"
    fill="#12A2BF" />
  <path
    d="M22.9144 21.0376C22.4075 21.0376 21.9006 21.2066 21.5626 21.7135C21.2247 22.0514 21.0557 22.5584 20.8867 23.0653L20.7178 24.0791C20.7178 24.586 20.7178 25.0929 21.0557 25.4309C21.3937 25.7688 21.7316 25.9378 22.2385 25.9378C22.9144 25.9378 23.2524 25.7688 23.5903 25.4309C23.9283 25.0929 24.0972 24.586 24.2662 24.0791L24.4352 23.0653C24.4352 22.5584 24.4352 22.0514 24.0972 21.7135C23.9283 21.2066 23.5903 21.0376 22.9144 21.0376Z"
    fill="#12A2BF" />
  <path
    d="M26.8007 9.04073L11.4242 28.6416C11.0863 28.9796 11.2552 29.6554 11.5932 29.8244C14.2967 31.3452 17.5072 31.8521 21.0557 31.1762C26.2938 29.9934 30.3492 25.7691 31.363 20.5309C32.2079 16.1376 30.6871 11.9133 28.1525 8.87176C27.6456 8.53381 26.9697 8.53381 26.8007 9.04073ZM27.3077 22.8965L27.1387 23.9104C26.9697 25.0932 26.4628 26.107 25.449 26.9519C24.6041 27.7967 23.4213 28.1347 21.9005 28.3037C20.5487 28.3037 19.3659 27.9657 18.69 27.1208C18.0141 26.445 17.8452 25.4311 18.0141 24.2483L18.1831 23.0655C18.3521 21.8827 18.859 20.8688 19.8729 20.024C20.7177 19.1791 21.9005 18.8412 23.4213 18.6722C24.7731 18.6722 25.9559 19.0101 26.6318 19.855C27.1387 20.6999 27.4766 21.7137 27.3077 22.8965Z"
    fill="#12A2BF" />
</svg>
