<svg width="40" height="40" viewBox="0 0 40 40" fill="none" xmlns="http://www.w3.org/2000/svg">
<g clip-path="url(#clip0_6593_82)">
<path fill-rule="evenodd" clip-rule="evenodd" d="M3.51522 20.1235L1.58163 19.9102C1.29394 19.8819 1.09993 19.6524 1.10001 19.3461V15.311C1.10001 15.0116 1.29401 14.7103 1.5817 14.5685L3.51529 13.6454C3.7093 12.9698 3.96354 12.2967 4.27131 11.6476L3.30113 10.0242C3.16064 9.78485 3.2008 9.4508 3.41489 9.19339L6.22491 5.8283C6.43899 5.57764 6.7602 5.47051 7.02109 5.57186L8.77396 6.2337C9.36942 5.80357 9.98496 5.43091 10.6139 5.11703L11.1759 3.05311C11.2562 2.74563 11.5172 2.49312 11.8182 2.43732L15.7791 1.70323C16.0735 1.64866 16.3344 1.80444 16.4214 2.08091L16.9767 3.93775C17.6123 4.01726 18.2279 4.16175 18.81 4.37364L20.5696 3.06087C20.8306 2.86279 21.1517 2.85087 21.3658 3.02217L24.1759 5.34564C24.39 5.52368 24.4368 5.84161 24.2896 6.1343L23.3195 8.11732C23.634 8.67139 23.8815 9.24478 24.0689 9.83608L25.9958 10.0233C26.2903 10.0504 26.491 10.2854 26.491 10.5848V10.6386C26.087 11.3454 25.6243 12.1561 25.2457 12.8677C24.7523 13.7538 24.1172 14.574 23.3728 15.2662C22.1805 16.3539 20.3178 18.3053 19.4094 20.4364L19.4082 20.4391L19.4071 20.4418C18.9414 21.5483 18.104 22.1459 17.2844 22.4884C16.8729 22.6603 16.4876 22.7567 16.2037 22.8093C16.0632 22.8353 15.9513 22.8499 15.8784 22.8579C15.842 22.8618 15.8157 22.864 15.8006 22.8652L15.7872 22.8661L15.7867 22.8662C15.7865 22.8662 15.7865 22.8662 15.7864 22.8662L15.7783 22.8665L14.8796 22.9316C13.6872 23.0059 12.7696 24.1601 12.7696 25.2389L12.7696 28.0844L11.8183 28.2607C11.5172 28.3165 11.2563 28.1675 11.1759 27.8898L10.6139 26.0275C9.98496 25.9467 9.36949 25.8022 8.78067 25.5915L7.02102 26.9111C6.76013 27.1024 6.43228 27.1223 6.22484 26.943L3.41482 24.6059C3.20073 24.4347 3.16057 24.1086 3.30106 23.8172L4.27124 21.8478C3.96347 21.306 3.7093 20.7271 3.51522 20.1235ZM26.491 12.5813V14.6404C26.491 14.9466 26.2903 15.2491 26.0026 15.3842L24.0756 16.3129C23.8883 16.9736 23.634 17.6468 23.3196 18.3175L24.2897 19.9273C24.4369 20.1654 24.39 20.5076 24.176 20.7581L21.3659 24.1368C21.1585 24.393 20.8306 24.4946 20.5697 24.4001L18.81 23.7395C18.2212 24.1617 17.6124 24.5331 16.9768 24.8482L16.4215 26.9176C16.3344 27.2264 16.0735 27.472 15.7791 27.5266L13.8018 27.8931L13.8018 25.0476C13.8018 24.5436 14.2311 24.0272 14.7597 23.9964L15.6518 23.9319C15.6518 23.9319 19.0548 23.7716 20.3433 20.7104C21.1363 18.8499 22.8211 17.0591 23.9776 16.0048C24.8364 15.2072 25.5633 14.2662 26.1249 13.2548C26.2399 13.0384 26.3633 12.812 26.491 12.5813ZM18.5223 14.1031C18.5223 11.4561 16.4014 9.69211 13.7987 10.1745C11.1894 10.6581 9.06844 13.2082 9.06844 15.8552C9.06844 18.509 11.1895 20.273 13.7987 19.7894C16.4014 19.307 18.5223 16.7568 18.5223 14.1031Z" fill="#1D3B61"/>
<path d="M13.8019 37.4469C13.8019 37.9508 14.1982 38.2807 14.6939 38.1888L16.2138 37.9071L20.5418 37.105C21.4668 36.9335 23.6474 37.2013 25.2661 37.4726C26.6866 37.6797 28.1403 37.6791 29.6602 37.3974L31.5102 37.0545C32.5344 36.8647 33.5256 36.3113 34.3515 35.5198L34.9131 34.9788C35.3757 34.5235 35.64 33.9368 35.7061 33.3199L35.7391 33.0114C35.772 32.6022 36.0034 32.1897 36.3336 31.8931C38.6133 29.8579 38.2828 28.1718 37.9855 27.4204C37.8535 27.1426 37.9194 26.7607 38.1176 26.4551C39.7034 24.0108 38.7783 22.3679 38.1837 21.6716C37.9855 21.4395 37.9524 21.1098 38.0846 20.7827C38.3819 20.0891 38.7124 18.9527 38.2828 18.0243C37.4569 16.2958 33.4924 17.6017 33.4924 17.6017C33.4924 17.6017 30.2547 18.3026 30.1556 17.2794C30.0565 16.2562 31.5432 12.5197 32.27 10.9738C32.6005 10.3079 32.7655 9.57154 32.8646 8.94824C33.0298 8.01033 32.8646 7.13392 32.4682 6.40085C31.9727 5.48459 31.1797 4.3884 30.1224 4.61791C29.1644 4.86273 28.8339 6.09988 28.7018 7.23318C28.5698 8.46728 28.1073 9.72915 27.4463 10.8932C27.0168 11.6448 26.5213 12.5094 26.1249 13.255C25.5633 14.2664 24.8364 15.2074 23.9776 16.005C22.8211 17.0594 21.1363 18.8501 20.3432 20.7106C19.0548 23.7718 15.6518 23.9321 15.6518 23.9321L14.7597 23.9967C14.2311 24.0274 13.8018 24.5438 13.8018 25.0478L13.8019 37.4469Z" fill="#549AF1"/>
</g>
<defs>
<clipPath id="clip0_6593_82">
<rect width="40" height="40" fill="white"/>
</clipPath>
</defs>
</svg>
