<svg width="68" height="48" viewBox="17 7 68 48" fill="none" xmlns="http://www.w3.org/2000/svg">
<g clip-path="url(#clip0)" filter="url(#filter0_d)">
<path fill-rule="evenodd" clip-rule="evenodd" d="M37 7C34.7909 7 33 8.79086 33 11C33 11 33 13.52 28.0769 17.2C27.2564 17.8133 26.4017 18.4011 25.547 18.9889C21.2735 21.9278 17 24.8667 17 31C17 37.1333 21.2735 40.0722 25.547 43.0111C26.4017 43.5989 27.2564 44.1867 28.0769 44.8C33 48.48 33 51 33 51C33 53.2091 34.7909 55 37 55H85V7H37Z" fill="#12A2BF"/>
<path fill-rule="evenodd" clip-rule="evenodd" d="M26.7071 33.2929L24.4142 31L26.7071 28.7071C27.0976 28.3166 27.0976 27.6834 26.7071 27.2929C26.3166 26.9024 25.6834 26.9024 25.2929 27.2929L22.2929 30.2929C21.9024 30.6834 21.9024 31.3166 22.2929 31.7071L25.2929 34.7071C25.6834 35.0976 26.3166 35.0976 26.7071 34.7071C27.0976 34.3166 27.0976 33.6834 26.7071 33.2929Z" fill="white"/>
<g filter="url(#filter1_d)">
<g clip-path="url(#clip1)">
</g>
</g>
</g>
<defs>
<filter id="filter0_d" x="0" y="0" width="102" height="82" filterUnits="userSpaceOnUse" color-interpolation-filters="sRGB">
<feFlood flood-opacity="0" result="BackgroundImageFix"/>
<feOffset dy="10"/>
<feGaussianBlur stdDeviation="8.5"/>
<feBlend mode="multiply" in2="BackgroundImageFix" result="effect1_dropShadow"/>
<feBlend mode="normal" in="SourceGraphic" in2="effect1_dropShadow" result="shape"/>
</filter>
</defs>
</svg>
